<?xml version="1.0" encoding="utf-8"?>
<!-- Generator: Adobe Illustrator 21.0.2, SVG Export Plug-In . SVG Version: 6.00 Build 0)  -->
<svg version="1.1" id="レイヤー_1" xmlns="http://www.w3.org/2000/svg" xmlns:xlink="http://www.w3.org/1999/xlink" x="0px"
	 y="0px" viewBox="0 0 16 16" style="enable-background:new 0 0 16 16;" xml:space="preserve">
<style type="text/css">
	.st0{fill:#888888;}
</style>
<path class="st0" d="M8.7,0C4-0.4,0,3.4,0,8c0,4.4,3.5,7.9,7.8,8c4.5,0.1,8.2-3.5,8.2-8C16,3.9,12.9,0.4,8.7,0z M14.4,7.2h-2.7
	c-0.1-1.8-0.6-3.6-1.5-5.2C12.4,2.8,14,4.8,14.4,7.2z M8,1.6C8,1.6,8,1.6,8,1.6C8,1.6,8,1.6,8,1.6C9.2,3.3,9.9,5.2,10,7.2H6
	C6.1,5.2,6.7,3.3,8,1.6z M5.8,2C4.9,3.6,4.5,5.4,4.4,7.2H1.6C2,4.8,3.6,2.8,5.8,2z M1.6,8.8h2.7c0.2,1.9,0.7,3.7,1.8,5.3
	C3.8,13.4,2,11.3,1.6,8.8z M8,14c-1.2-1.6-1.8-3.4-2-5.2h4C9.8,10.6,9.2,12.4,8,14z M9.9,14.1c1-1.6,1.6-3.5,1.8-5.3h2.7
	C14,11.3,12.2,13.4,9.9,14.1z"/>
</svg>
