<?xml version="1.0" encoding="utf-8"?>
<!-- Generator: Adobe Illustrator 21.0.2, SVG Export Plug-In . SVG Version: 6.00 Build 0)  -->
<svg version="1.1" id="レイヤー_1" xmlns="http://www.w3.org/2000/svg" xmlns:xlink="http://www.w3.org/1999/xlink" x="0px"
	 y="0px" viewBox="0 0 144 32" style="enable-background:new 0 0 144 32;" xml:space="preserve">
<style type="text/css">
	.st0{fill:#004C97;}
</style>
<g>
	<g>
		<path class="st0" d="M59.6,30.8h5.5V0.3h-5.5V30.8z M138,0.3v30.5h5.5V0.3H138z M114.1,0.3h-10.3v5.1h10.3V0.3z M136,0.3h-5.8
			l-5.1,10.3V0.3h-5.5v30.5h5.5v-8.5l1.5-3l4.5,11.5h5.8l-7.1-17.9L136,0.3z M50.6,30.8h5.5V0.3h-5.5V30.8z M24.8,5.3h2.9v18.3
			c0,2.6-5.2,2.5-5.2,0.1V0.3h-5.7v23.9c0,8.9,16.4,9.4,16.4-0.1c0-0.5,0-0.9,0-1.3V0.3h-8.4V5.3z M108.6,7c-4.6,0-8.3,3.8-8.3,8.4
			v7.7c0,4.6,3.7,8.4,8.3,8.4c4.6,0,8.3-3.8,8.3-8.4v-7.7C117,10.7,113.3,7,108.6,7z M111.2,22.7c0,1.4-1.1,2.6-2.6,2.6
			c-1.4,0-2.6-1.2-2.6-2.6v-7c0-1.4,1.2-2.6,2.6-2.6c1.4,0,2.6,1.2,2.6,2.6V22.7z M83.3,8.4c0-4.4-3.6-8.1-8-8.1v0h-3v0h-4v30.5h5.5
			v-12l5.7,12l5.8,0l-7.1-14.9C81.1,14.8,83.3,11.8,83.3,8.4z M75.5,11.3h-1.7V5.5h1.7c1.6,0,2.9,1.3,2.9,2.9
			C78.3,10,77,11.3,75.5,11.3z M96.9,0.3l-4.8,8.4l-4.8-8.4h-6l8.1,13.9v16.6l5.5,0V14.2l8-13.9H96.9z M0.5,30.8H6V16.3h7v-4.9H6
			V5.3h8V0.3H0.5V30.8z M37.5,0.3v4.9h4.1V23c0,4.5-5.3,4.8-7,2.3c0,0,0-0.1-0.1-0.1v5.1c4.5,3.2,12.5,0.3,12.5-6.9
			c0-0.4,0-23.1,0-23.1H37.5z"/>
	</g>
</g>
</svg>
