<?xml version="1.0" encoding="utf-8"?>
<!-- Generator: Adobe Illustrator 23.0.1, SVG Export Plug-In . SVG Version: 6.00 Build 0)  -->
<svg version="1.1" id="レイヤー_1" xmlns="http://www.w3.org/2000/svg" xmlns:xlink="http://www.w3.org/1999/xlink" x="0px"
	 y="0px" viewBox="0 0 119 48" style="enable-background:new 0 0 119 48;" xml:space="preserve">
<style type="text/css">
	.st0{fill:#004DA3;}
	.st1{fill:#FFFFFF;}
</style>
<path class="st0" d="M65.3,12.8c-0.7,0.5-1.6,1-2.4,1.4c-0.2-0.4-0.6-1-1-1.4c2.4-1,4.6-3,5.7-4.7h1.7c1.5,2.1,3.7,3.7,5.9,4.4
	c-0.4,0.4-0.8,1-1.1,1.5c-0.8-0.4-1.6-0.8-2.4-1.4v1.1h-6.5V12.8z M62.9,15h11.6v1.5h-6.3c-0.4,0.8-0.9,1.7-1.3,2.5
	c1.3,0,2.8-0.1,4.2-0.2c-0.4-0.5-0.9-1-1.4-1.4l1.5-0.8c1.2,1.1,2.5,2.5,3.2,3.6l-1.6,0.9c-0.1-0.3-0.3-0.6-0.6-0.9
	c-3.3,0.2-6.8,0.3-9.1,0.4l-0.2-1.6l2.1-0.1c0.4-0.8,0.8-1.7,1.1-2.5h-3.3V15z M71.3,12.3c-1.1-0.8-2-1.7-2.7-2.6
	c-0.6,0.9-1.5,1.8-2.6,2.6H71.3z"/>
<path class="st0" d="M85.9,18.8c1.3,0.4,2.7,0.9,3.7,1.3l-1.5,1.2c-1.1-0.5-3-1.2-4.5-1.6l1.2-0.8H81l1.1,0.7
	c-1.1,0.7-2.9,1.3-4.3,1.7c-0.3-0.4-0.9-0.9-1.3-1.2c1.2-0.3,2.6-0.8,3.6-1.2h-2.2v-6.2h10.2v6.2H85.9z M87.6,12.1h-9.1V8.6h9.1
	V12.1z M79.5,14.3h6.9v-0.6h-6.9V14.3z M79.5,16h6.9v-0.6h-6.9V16z M79.5,17.7h6.9V17h-6.9V17.7z M85.8,9.9h-5.7v0.9h5.7V9.9z"/>
<path class="st0" d="M103.6,10.8c-0.6,0.5-1.2,1-1.8,1.4c0.7,0.5,1.4,0.9,2.2,1.2c-0.4,0.3-0.9,1-1.1,1.4c-1.1-0.5-2.1-1.2-3-2.1
	v0.6h-5.2v-0.5c-1,0.9-2,1.7-3.2,2.2c-0.2-0.4-0.7-0.9-1-1.2c0.8-0.3,1.6-0.8,2.4-1.4c-0.4-0.4-1-0.9-1.5-1.2l0.9-0.9
	c0.5,0.3,1.2,0.7,1.6,1.1c0.4-0.4,0.8-0.9,1-1.4h-2.9V8.6h3.7l0.3-0.1l1.1,0.6c-0.4,1-0.9,1.9-1.6,2.7h3.6c-0.8-1-1.4-2-1.9-3.2
	l1.4-0.4c0.2,0.5,0.4,1,0.7,1.4c0.5-0.4,1-0.9,1.4-1.3l1.3,0.9c-0.6,0.5-1.3,1-1.9,1.5c0.2,0.3,0.4,0.5,0.7,0.7
	c0.6-0.4,1.2-1,1.6-1.4L103.6,10.8z M100.7,18c-0.3,0.6-0.6,1.1-0.8,1.5h3.5v1.4h-12v-1.4h3.4c-0.1-0.5-0.4-1-0.6-1.5l0.7-0.2h-1.5
	V14h8.1v3.9h-1.3L100.7,18z M94.9,16.6h4.8v-1.2h-4.8V16.6z M95.7,17.9c0.3,0.5,0.6,1.1,0.7,1.5l-0.5,0.2h2.8l-0.4-0.1
	c0.2-0.4,0.5-1,0.7-1.6H95.7z"/>
<path class="st0" d="M110.5,18.8c0.7-0.4,1.6-1,2.5-1.6l0.5,1.3c-0.8,0.6-1.7,1.3-2.5,1.8l-0.5-0.8l0,0.4c-1.7,0.4-3.6,0.8-5,1
	l-0.3-1.5c0.6-0.1,1.3-0.2,2.1-0.3v-3.7h-1.9V14h1.9v-1h-1.2v-0.6c-0.1,0.1-0.2,0.2-0.3,0.3c-0.2-0.3-0.7-0.9-1-1.1
	c1.2-1,2-2.3,2.4-3.4h1.4c0.8,0.7,1.8,1.7,2.3,2.4l-0.9,1.1h0.1V13h-1.4v1h1.7v1.4h-1.7v3.4l1.7-0.3L110.5,18.8z M106.6,16
	c0.2,0.8,0.4,1.8,0.5,2.4l-1.1,0.3c0-0.7-0.2-1.7-0.4-2.5L106.6,16z M109.8,11.6c-0.4-0.6-1-1.4-1.6-1.9c-0.4,0.6-0.8,1.3-1.4,1.9
	H109.8z M108.9,18.1c0.2-0.6,0.4-1.6,0.5-2.3l1.2,0.3c-0.3,0.8-0.5,1.7-0.7,2.3L108.9,18.1z M115.9,16.5c0.6,1,1.4,2,2.6,2.6
	c-0.3,0.3-0.8,0.9-1.1,1.4c-1-0.6-1.8-1.7-2.3-2.7v1.8c0,0.7-0.1,1.1-0.5,1.3c-0.4,0.2-1,0.3-1.8,0.3c0-0.4-0.2-1-0.4-1.4
	c0.4,0,0.8,0,1,0c0.2,0,0.2,0,0.2-0.2v-5.5h-2.9v-1.4h4.9V12h-3.9v-1.3h3.9V10h-4.2V8.6h5.7v4.1h1v1.4h-3v0.5c0.1,0.5,0.3,1,0.6,1.5
	c0.4-0.5,1-1.2,1.3-1.7l1.3,0.8c-0.6,0.6-1.2,1.3-1.7,1.8L115.9,16.5z M111.8,14.6c0.6,0.5,1.2,1.2,1.4,1.8l-1.2,0.8
	c-0.2-0.5-0.8-1.3-1.4-1.8L111.8,14.6z"/>
<path class="st0" d="M73.9,36.7c0,0.5,0,1.9,0,1.9H72l0-0.8h-6.8l0,0.8h-1.9c0-0.1,0-1.3,0-2v-6.8c0-0.4,0-1,0-1.4
	c0.6,0,1.1,0,1.5,0h7.7c0.4,0,0.9,0,1.4,0c0,0.4,0,0.9,0,1.4V36.7z M65.3,30.3v5.8H72v-5.8H65.3z"/>
<path class="st0" d="M87.2,29.3l1.2,0.7c-0.2,0.3-0.4,0.7-0.5,1c-0.4,1.3-1.2,3.1-2.5,4.7c-1.3,1.6-3,2.9-5.6,4l-1.7-1.5
	c2.9-0.9,4.4-2.1,5.6-3.5c1-1.1,1.8-2.8,2-3.8h-4c-0.9,1.2-2.1,2.5-3.5,3.4l-1.6-1.2c2.5-1.5,3.7-3.3,4.4-4.5c0.2-0.3,0.5-1,0.6-1.5
	l2.1,0.7c-0.3,0.5-0.7,1.1-0.9,1.4l0,0.1h2.8c0.4,0,0.9-0.1,1.2-0.2l0.1,0.1c-0.3-0.6-0.7-1.3-1-1.8l1.1-0.4
	c0.4,0.5,0.8,1.4,1.1,1.9L87.2,29.3z M88.8,26.3c0.4,0.5,0.9,1.4,1.1,1.9l-1.1,0.5c-0.3-0.6-0.7-1.4-1.1-1.9L88.8,26.3z"/>
<path class="st0" d="M99.7,37.2c0,0.6,0,1.5,0.1,1.8h-2.2c0.1-0.3,0.1-1.2,0.1-1.8v-4.6c-1.4,0.7-3.2,1.5-4.8,1.9l-1-1.7
	c2.5-0.5,4.8-1.6,6.4-2.5c1.4-0.9,2.9-2.1,3.7-3.2l1.5,1.4c-1.1,1.1-2.3,2.1-3.7,3V37.2z"/>
<path class="st0" d="M111.5,35.2c2.4-1.4,4.2-3.6,5.1-5.4l1.1,2c-1.1,1.9-2.9,3.8-5.2,5.2c-1.4,0.9-3.2,1.6-5.2,2l-1.2-1.8
	C108.3,36.8,110.1,36.1,111.5,35.2z M111.5,30.7l-1.4,1.5c-0.7-0.8-2.5-2.3-3.5-3l1.3-1.4C108.9,28.4,110.7,29.9,111.5,30.7z"/>
<circle id="楕円形_18" class="st0" cx="24" cy="24" r="24"/>
<path id="パス_4" class="st1" d="M17.1,19.3v2.5h-0.2c-1.1,0-1.9,0.9-1.9,1.9v10.7c0,1.1,0.9,1.9,1.9,1.9h14.9
	c1.1,0,1.9-0.9,1.9-1.9V23.8c0-1.1-0.9-1.9-1.9-1.9h-0.1v-2.5c0-4-3.3-7.3-7.3-7.3C20.4,12,17.1,15.3,17.1,19.3
	C17.1,19.3,17.1,19.3,17.1,19.3L17.1,19.3z M25.5,29.6c-0.1,0.1-0.2,0.2-0.2,0.4c0,0.8,0,1.6,0,2.3l0,0c0,0.3-0.2,0.6-0.4,0.8
	c-0.4,0.3-1,0.1-1.2-0.3c-0.1-0.1-0.1-0.3-0.1-0.4l0,0c0-0.8,0-1.6,0-2.3c0-0.1-0.1-0.3-0.2-0.4c-0.7-0.5-0.9-1.4-0.6-2.2
	c0.4-0.9,1.5-1.3,2.4-0.9c0.6,0.3,1.1,0.9,1.1,1.6C26.3,28.7,26,29.3,25.5,29.6L25.5,29.6z M20.3,19.3c0-2.3,1.8-4.1,4.1-4.1
	c2.3,0,4.1,1.8,4.1,4.1v2.5h-8.2V19.3z"/>
</svg>
