<?xml version="1.0" encoding="utf-8"?>
<!-- Generator: Adobe Illustrator 23.0.1, SVG Export Plug-In . SVG Version: 6.00 Build 0)  -->
<svg version="1.1" id="レイヤー_1" xmlns="http://www.w3.org/2000/svg" xmlns:xlink="http://www.w3.org/1999/xlink" x="0px"
	 y="0px" viewBox="0 0 154 60" style="enable-background:new 0 0 154 60;" xml:space="preserve">
<style type="text/css">
	.st0{fill:#F56B3C;}
	.st1{fill:#FFFFFF;}
</style>
<circle id="楕円形_17" class="st0" cx="30" cy="30" r="30"/>
<path id="パス_3" class="st1" d="M38.4,38.2H25.2L24.4,35h17.2l3.7-14.8H20.7L19.4,15h-6.9v1.9h5.4l5.3,21.4
	c-1.9,0.4-3.1,2.2-2.7,4.1c0.4,1.9,2.2,3.1,4.1,2.7s3.1-2.2,2.7-4.1c-0.1-0.3-0.2-0.5-0.3-0.8h8.2c-0.8,1.7-0.1,3.8,1.6,4.6
	c1.7,0.8,3.8,0.1,4.6-1.6c0.8-1.7,0.1-3.8-1.6-4.6C39.5,38.4,38.9,38.2,38.4,38.2z"/>
<path class="st0" d="M88.7,16.2c-0.1,0.3-0.1,0.8-0.1,1.1c-0.1,2.2-0.3,7.7-1.2,9.8c-0.4,1-1.2,1.5-2.6,1.5c-1.1,0-2.3-0.1-3.3-0.2
	l-0.3-2.7c1,0.2,2,0.3,2.8,0.3c0.6,0,0.9-0.2,1.1-0.7c0.6-1.3,0.8-5.3,0.8-7.4h-4.5c-0.7,5.3-2.6,8.4-6.2,11L72.9,27
	c0.8-0.5,1.8-1.1,2.6-2c1.9-1.8,2.9-4.1,3.3-7.1h-2.6c-0.7,0-1.8,0-2.6,0.1v-2.6c0.8,0.1,1.9,0.1,2.6,0.1H79c0-0.6,0-1.1,0-1.7
	c0-0.4-0.1-1.4-0.1-1.8h2.9c-0.1,0.5-0.1,1.3-0.1,1.8c0,0.6,0,1.2-0.1,1.8h3.8c0.5,0,1-0.1,1.5-0.1L88.7,16.2z"/>
<path class="st0" d="M92.5,18.7c0.7,0.1,2.2,0.1,3.2,0.1h10.7c0.9,0,1.8-0.1,2.3-0.1v3.1c-0.5,0-1.5-0.1-2.3-0.1H95.7
	c-1.1,0-2.5,0-3.2,0.1V18.7z"/>
<path class="st0" d="M124.9,23.4c-2.1-1.1-5.1-2.2-7.2-3v5.7c0,0.6,0.1,2,0.2,2.8h-3.1c0.1-0.8,0.2-2,0.2-2.8V14.6
	c0-0.7-0.1-1.7-0.2-2.4h3.1c-0.1,0.7-0.2,1.6-0.2,2.4v2.9c2.7,0.8,6.5,2.2,8.4,3.1L124.9,23.4z"/>
<path class="st0" d="M138,25.1c0-0.6,0.1-1.5,0.1-2.4c-1.5,0.8-2.3,1.6-2.3,2.6c0,1.1,0.9,1.4,2.9,1.4c1.7,0,3.9-0.2,5.6-0.6
	l-0.1,2.6c-1.3,0.2-3.7,0.3-5.6,0.3c-3.1,0-5.4-0.7-5.4-3.3c0-2.5,2.4-4.1,4.7-5.3c-0.3-0.5-0.8-0.7-1.4-0.7c-1.1,0-2.3,0.6-3.1,1.4
	c-0.6,0.6-1.2,1.3-1.8,2.2l-2.1-1.6c2.1-1.9,3.5-3.7,4.4-5.4h-0.2c-0.8,0-2.3,0-3.3-0.1v-2.3c1,0.2,2.5,0.2,3.5,0.2h1
	c0.2-0.9,0.4-1.7,0.4-2.3l2.6,0.2c-0.1,0.5-0.2,1.2-0.5,2c1.9-0.1,3.9-0.3,5.6-0.6l0,2.3c-1.9,0.3-4.3,0.4-6.5,0.5
	c-0.3,0.7-0.7,1.4-1.1,2c0.5-0.3,1.6-0.4,2.2-0.4c1.2,0,2.2,0.5,2.6,1.5c1-0.5,1.9-0.8,2.7-1.2c0.8-0.3,1.5-0.7,2.2-1l1,2.3
	c-0.6,0.2-1.7,0.6-2.4,0.8c-0.9,0.3-2,0.8-3.2,1.3c0,1.1,0.1,2.6,0.1,3.5H138z"/>
<path class="st0" d="M88.3,49.3c0.7,0,0.8-0.3,0.9-2.7c0.5,0.4,1.6,0.8,2.2,0.9c-0.3,3.2-0.9,4-2.9,4h-2.6c-2.4,0-2.9-0.7-2.9-3
	v-3.2h-2.4c-0.4,3.2-1.6,5.3-6.5,6.4c-0.2-0.6-0.9-1.6-1.3-2.1c4.1-0.8,5-2.1,5.3-4.3h-2.4V33.7h13.1v11.7h-3.3v3.2
	c0,0.6,0.1,0.7,0.9,0.7H88.3z M77.8,37h8.4v-1.2h-8.4V37z M77.8,40.2h8.4v-1.2h-8.4V40.2z M77.8,43.3h8.4v-1.2h-8.4V43.3z"/>
<path class="st0" d="M107.4,36.3c-0.5,0.3-0.9,0.6-1.4,0.9c-1.1,0.7-3.1,2.5-4.4,3.5c0.7-0.2,1.2-0.2,1.9-0.2c3.4,0,5.9,2.1,5.9,5
	c0,3.1-2.4,5.6-7.2,5.6c-2.8,0-4.8-1.3-4.8-3.2c0-1.6,1.5-3.1,3.6-3.1c2.4,0,3.9,1.5,4.2,3.4c1.1-0.6,1.6-1.5,1.6-2.7
	c0-1.8-1.8-3-4.1-3c-3,0-5,1.6-7.1,4l-1.8-1.9c1.4-1.1,3.8-3.2,5-4.1c1.1-0.9,3.2-2.6,4.1-3.4c-1,0-3.7,0.1-4.8,0.2
	c-0.5,0-1.2,0.1-1.6,0.2l-0.1-2.6c0.6,0.1,1.2,0.1,1.8,0.1c1,0,5.3-0.1,6.4-0.2c0.8-0.1,1.3-0.1,1.5-0.2L107.4,36.3z M102.9,48.7
	c-0.1-1.3-0.9-2.1-1.9-2.1c-0.7,0-1.2,0.4-1.2,0.9c0,0.7,0.8,1.2,2,1.2C102.2,48.8,102.5,48.8,102.9,48.7z"/>
</svg>
