<?xml version="1.0" encoding="utf-8"?>
<!-- Generator: Adobe Illustrator 23.0.1, SVG Export Plug-In . SVG Version: 6.00 Build 0)  -->
<svg version="1.1" id="レイヤー_1" xmlns="http://www.w3.org/2000/svg" xmlns:xlink="http://www.w3.org/1999/xlink" x="0px"
	 y="0px" viewBox="0 0 154 60" style="enable-background:new 0 0 154 60;" xml:space="preserve">
<style type="text/css">
	.st0{fill:#004DA3;}
	.st1{fill:#FFFFFF;}
</style>
<path class="st0" d="M77.3,17.8c-1.1,0.8-2.2,1.4-3.4,2c-0.3-0.6-0.9-1.5-1.4-2c3.4-1.5,6.6-4.3,8.1-6.7h2.5
	c2.1,2.9,5.3,5.2,8.5,6.3C91,18,90.5,18.9,90,19.6c-1.1-0.5-2.3-1.2-3.4-1.9v1.6h-9.3V17.8z M73.8,20.9h16.5v2.2h-9
	c-0.6,1.2-1.2,2.4-1.8,3.5c1.9-0.1,4-0.1,6-0.2c-0.6-0.7-1.3-1.4-2-2l2.1-1.1c1.8,1.6,3.6,3.6,4.6,5.1l-2.2,1.3
	c-0.2-0.4-0.5-0.8-0.8-1.2c-4.7,0.3-9.6,0.5-13,0.6l-0.3-2.3l3-0.1c0.5-1.1,1.1-2.4,1.5-3.6h-4.6V20.9z M85.8,17.1
	c-1.5-1.2-2.9-2.5-3.8-3.7c-0.9,1.2-2.1,2.5-3.7,3.7H85.8z"/>
<path class="st0" d="M106.7,26.3c1.9,0.6,3.9,1.3,5.3,1.8l-2.1,1.7c-1.5-0.7-4.3-1.7-6.4-2.3l1.7-1.2h-5.4l1.5,1.1
	c-1.6,0.9-4.2,1.9-6.2,2.4c-0.4-0.5-1.3-1.2-1.8-1.7c1.7-0.4,3.8-1.1,5.1-1.8h-3.1v-8.9h14.6v8.9H106.7z M109.1,16.7h-13v-5h13V16.7
	z M97.6,19.9h9.8V19h-9.8V19.9z M97.6,22.3h9.8v-0.9h-9.8V22.3z M97.6,24.7h9.8v-0.9h-9.8V24.7z M106.6,13.5h-8.1v1.3h8.1V13.5z"/>
<path class="st0" d="M132,14.8c-0.8,0.7-1.7,1.4-2.6,2c1,0.7,2,1.3,3.1,1.8c-0.5,0.4-1.2,1.4-1.6,2c-1.6-0.7-3-1.8-4.3-3v0.8h-7.4
	v-0.7c-1.4,1.3-2.9,2.4-4.5,3.2c-0.3-0.5-0.9-1.3-1.4-1.7c1.2-0.5,2.3-1.2,3.4-2.1c-0.6-0.6-1.4-1.2-2.1-1.7l1.3-1.3
	c0.8,0.4,1.7,1.1,2.3,1.6c0.6-0.6,1.1-1.3,1.5-2h-4.1v-1.9h5.2l0.4-0.1l1.5,0.8c-0.5,1.5-1.3,2.8-2.3,3.9h5.1
	c-1.1-1.4-2-2.9-2.7-4.6l2-0.6c0.3,0.7,0.6,1.4,1.1,2c0.7-0.6,1.5-1.3,2-1.9l1.8,1.3c-0.9,0.7-1.9,1.5-2.7,2.1
	c0.3,0.4,0.6,0.7,0.9,1c0.8-0.6,1.7-1.4,2.2-2.1L132,14.8z M127.8,25.2c-0.4,0.8-0.8,1.6-1.2,2.2h5v2h-17.2v-2h4.8
	c-0.2-0.7-0.5-1.5-0.9-2.1l1-0.3h-2.2v-5.5h11.6V25H127L127.8,25.2z M119.5,23.2h6.8v-1.8h-6.8V23.2z M120.7,25
	c0.4,0.7,0.8,1.5,1,2.1l-0.8,0.2h3.9l-0.5-0.1c0.3-0.6,0.8-1.5,1-2.2H120.7z"/>
<path class="st0" d="M141.8,26.3c1-0.6,2.3-1.4,3.6-2.3l0.7,1.8c-1.2,0.9-2.5,1.8-3.6,2.6l-0.7-1.1l0.1,0.6
	c-2.5,0.5-5.1,1.1-7.1,1.5l-0.4-2.2c0.8-0.1,1.8-0.3,2.9-0.5v-5.2h-2.7v-2h2.7V18h-1.8v-0.9c-0.1,0.1-0.3,0.2-0.4,0.4
	c-0.3-0.5-1-1.2-1.4-1.5c1.7-1.4,2.8-3.3,3.5-4.8h2c1.2,1,2.6,2.4,3.3,3.4l-1.3,1.5h0.2v2h-2.1v1.5h2.5v2h-2.5v4.8l2.4-0.4
	L141.8,26.3z M136.3,22.2c0.3,1.1,0.6,2.5,0.7,3.4l-1.6,0.4c0-1-0.3-2.4-0.6-3.5L136.3,22.2z M140.8,16c-0.6-0.8-1.4-1.9-2.3-2.7
	c-0.5,0.9-1.1,1.8-1.9,2.7H140.8z M139.6,25.3c0.3-0.9,0.6-2.3,0.7-3.2l1.7,0.4c-0.4,1.1-0.7,2.4-1,3.2L139.6,25.3z M149.5,23
	c0.8,1.5,2,2.9,3.7,3.7c-0.5,0.4-1.2,1.3-1.5,2c-1.4-0.9-2.5-2.4-3.3-3.9v2.6c0,1-0.1,1.6-0.8,1.9c-0.6,0.3-1.4,0.4-2.5,0.4
	c-0.1-0.6-0.3-1.4-0.6-2.1c0.6,0,1.2,0,1.4,0c0.2,0,0.3-0.1,0.3-0.3v-7.8H142v-2h7v-1h-5.6v-1.8h5.6v-1.1h-6v-2h8.2v5.9h1.5v2h-4.3
	v0.7c0.2,0.7,0.5,1.4,0.8,2.1c0.6-0.7,1.4-1.7,1.8-2.4l1.9,1.1c-0.8,0.9-1.7,1.9-2.4,2.5L149.5,23z M143.7,20.3
	c0.8,0.7,1.7,1.8,2.1,2.5l-1.7,1.1c-0.3-0.7-1.2-1.8-2-2.6L143.7,20.3z"/>
<path class="st0" d="M89.6,47.6c0,0.8,0,2.7,0,2.8h-2.8l0-1.1h-9.6l0,1.1h-2.8c0-0.1,0.1-1.8,0.1-2.8v-9.8c0-0.6,0-1.4,0-1.9
	c0.8,0,1.6,0,2.1,0h11c0.5,0,1.3,0,2,0c0,0.6,0,1.3,0,1.9V47.6z M77.2,38.4v8.3h9.7v-8.3H77.2z"/>
<path class="st0" d="M108.6,37l1.7,1c-0.2,0.4-0.5,0.9-0.7,1.4c-0.5,1.8-1.7,4.5-3.5,6.7c-1.9,2.3-4.3,4.2-8.1,5.7l-2.4-2.1
	c4.1-1.2,6.3-3,8.1-5c1.4-1.5,2.5-4,2.8-5.4H101c-1.3,1.7-3.1,3.5-5,4.8l-2.2-1.7c3.5-2.1,5.3-4.7,6.2-6.4c0.3-0.5,0.7-1.4,0.9-2.1
	l2.9,1c-0.5,0.7-1,1.6-1.2,2l-0.1,0.1h4c0.6,0,1.3-0.1,1.7-0.2l0.1,0.1c-0.4-0.8-1-1.9-1.5-2.6l1.6-0.6c0.5,0.7,1.2,2,1.6,2.7
	L108.6,37z M110.8,32.7c0.5,0.7,1.3,2,1.6,2.7l-1.6,0.7c-0.4-0.8-1-2-1.6-2.8L110.8,32.7z"/>
<path class="st0" d="M126.2,48.3c0,0.9,0,2.1,0.2,2.6h-3.2c0.1-0.5,0.1-1.7,0.1-2.6v-6.6c-2.1,1-4.6,2.1-6.9,2.7L115,42
	c3.5-0.8,6.9-2.2,9.1-3.6c2-1.3,4.1-3,5.2-4.5l2.1,1.9c-1.5,1.5-3.3,3-5.3,4.3V48.3z"/>
<path class="st0" d="M143.4,45.5c3.4-2,6-5.1,7.3-7.8l1.6,2.8c-1.5,2.7-4.2,5.5-7.4,7.4c-2,1.2-4.6,2.3-7.4,2.8l-1.7-2.6
	C138.8,47.7,141.4,46.7,143.4,45.5z M143.4,39l-2,2.1c-1-1.1-3.5-3.3-5-4.3l1.9-2C139.6,35.7,142.2,37.8,143.4,39z"/>
<circle id="楕円形_18" class="st0" cx="30" cy="30" r="30"/>
<g id="グループ化_77">
	<path id="パス_4" class="st1" d="M21.4,24.2v3.2h-0.2c-1.3,0-2.4,1.1-2.4,2.4v13.3c0,1.3,1.1,2.4,2.4,2.4h18.6
		c1.3,0,2.4-1.1,2.4-2.4V29.8c0-1.3-1.1-2.4-2.4-2.4h-0.1v-3.2c0-5.1-4.1-9.2-9.2-9.2C25.5,15,21.4,19.1,21.4,24.2
		C21.4,24.2,21.4,24.2,21.4,24.2z M31.9,37c-0.2,0.1-0.3,0.3-0.2,0.5c0,1,0,2,0,2.9l0,0c0,0.4-0.2,0.8-0.5,1
		c-0.5,0.3-1.2,0.1-1.6-0.4c-0.1-0.2-0.1-0.4-0.2-0.6v0c0-1,0-2,0-2.9c0-0.2-0.1-0.4-0.2-0.5c-0.9-0.6-1.2-1.8-0.7-2.7
		c0.5-1.1,1.9-1.7,3-1.2c0.8,0.4,1.3,1.2,1.3,2.1C32.8,35.9,32.5,36.6,31.9,37z M25.4,24.2c0-2.8,2.3-5.1,5.1-5.1
		c2.8,0,5.2,2.3,5.2,5.1v3.2H25.4V24.2z"/>
</g>
</svg>
