<svg xmlns="http://www.w3.org/2000/svg" viewBox="0 0 37.901 38.833">
  <defs>
    <style>
      .cls-1 {
        fill: #5a5a5a;
      }

      .cls-2 {
        fill: #444;
      }

      .cls-3 {
        fill: #fdbf00;
      }

      .cls-4 {
        fill: #ff9f00;
      }

      .cls-5 {
        fill: #ffd400;
      }
    </style>
  </defs>
  <g id="notification" transform="matrix(0.966, 0.259, -0.259, 0.966, -16.045, -9.805)">
    <path id="パス_16" data-name="パス 16" class="cls-1" d="M211,0V6.642h6.234V0Z" transform="translate(-173.117)"/>
    <rect id="長方形_200" data-name="長方形 200" class="cls-2" width="3.117" height="6.642" transform="translate(41)"/>
    <g id="グループ化_167" data-name="グループ化 167" transform="translate(30.153 4.294)">
      <path id="パス_17" data-name="パス 17" class="cls-3" d="M181,422v1.039a5.189,5.189,0,0,0,5.195,5.195,5.2,5.2,0,0,0,5.091-4.156,5.238,5.238,0,0,0,.1-1.039V422Z" transform="translate(-175.348 -397.065)"/>
      <path id="パス_18" data-name="パス 18" class="cls-3" d="M121.094,80.7h-.042l-1.745,2.078h-18.39L99.442,80.7H99.4a19.721,19.721,0,0,0,1.5-7.5V71.7a9.689,9.689,0,0,1,6.234-9.149q.376-.138.769-.243a8.313,8.313,0,0,1,1.434-.27c.312-.021.623-.042.914-.042a8.884,8.884,0,0,1,2.348.312q.393.1.769.23a9.31,9.31,0,0,1,6.234,8.809V73.2A19.721,19.721,0,0,0,121.094,80.7Z" transform="translate(-99.4 -62)"/>
    </g>
    <g id="グループ化_168" data-name="グループ化 168" transform="translate(41 4.294)">
      <path id="パス_19" data-name="パス 19" class="cls-4" d="M272,89.013H261.091a5.205,5.205,0,0,1-3.133,3.773L256,89.013V62a8.884,8.884,0,0,1,2.348.312q.393.1.769.23a9.31,9.31,0,0,1,6.234,8.809V73.2a19.72,19.72,0,0,0,1.5,7.5h-.042l.291.623a19.267,19.267,0,0,0,1.725,3.075Z" transform="translate(-256 -62)"/>
      <path id="パス_20" data-name="パス 20" class="cls-4" d="M261.195,422v1.039a5.186,5.186,0,0,1-3.237,4.812,5.158,5.158,0,0,1-1.958.383V422Z" transform="translate(-256 -397.065)"/>
    </g>
    <path id="パス_21" data-name="パス 21" class="cls-5" d="M53.821,335.7a19.263,19.263,0,0,1-1.725-3.075L51.805,332H30.195l-.291.623a19.263,19.263,0,0,1-1.725,3.075L25,340.312H57Z" transform="translate(0 -309.004)"/>
    <path id="パス_22" data-name="パス 22" class="cls-3" d="M272,340.312H256V332h10.805l.291.623a19.264,19.264,0,0,0,1.725,3.075Z" transform="translate(-215 -309.004)"/>
  </g>
</svg>
