<?xml version="1.0" encoding="utf-8"?>
<!-- Generator: Adobe Illustrator 23.0.1, SVG Export Plug-In . SVG Version: 6.00 Build 0)  -->
<svg version="1.1" id="レイヤー_1" xmlns="http://www.w3.org/2000/svg" xmlns:xlink="http://www.w3.org/1999/xlink" x="0px"
	 y="0px" viewBox="0 0 148 48" style="enable-background:new 0 0 148 48;" xml:space="preserve">
<style type="text/css">
	.st0{fill:#F56B3C;}
	.st1{fill:#FFFFFF;}
</style>
<path class="st0" d="M73.9,21.8c0,0.2-0.1,0.6-0.1,0.7c-0.1,1.5-0.2,5.4-0.8,6.8c-0.3,0.7-0.8,1.1-1.8,1.1c-0.8,0-1.6-0.1-2.3-0.1
	l-0.2-1.9c0.7,0.1,1.4,0.2,2,0.2c0.4,0,0.6-0.2,0.8-0.5c0.4-0.9,0.6-3.7,0.6-5.2h-3.2c-0.5,3.7-1.8,5.9-4.4,7.7l-1.6-1.3
	c0.6-0.3,1.3-0.8,1.8-1.4c1.3-1.3,2-2.9,2.3-5h-1.8c-0.5,0-1.2,0-1.8,0.1v-1.8c0.6,0.1,1.3,0.1,1.8,0.1h2c0-0.4,0-0.8,0-1.2
	c0-0.3,0-1-0.1-1.3h2.1c0,0.3-0.1,0.9-0.1,1.2c0,0.4,0,0.9-0.1,1.3h2.6c0.4,0,0.7,0,1.1-0.1L73.9,21.8z"/>
<path class="st0" d="M76.6,23.5c0.5,0,1.5,0.1,2.3,0.1h7.5c0.6,0,1.3-0.1,1.6-0.1v2.2c-0.3,0-1.1-0.1-1.6-0.1h-7.5
	c-0.8,0-1.7,0-2.3,0.1V23.5z"/>
<path class="st0" d="M99.3,26.8c-1.4-0.8-3.5-1.6-5.1-2.1v4c0,0.4,0.1,1.4,0.1,1.9h-2.2c0.1-0.5,0.1-1.4,0.1-1.9v-8
	c0-0.5,0-1.2-0.1-1.7h2.2c-0.1,0.5-0.1,1.1-0.1,1.7v2.1c1.9,0.5,4.6,1.5,5.9,2.2L99.3,26.8z"/>
<path class="st0" d="M108.4,28c0-0.4,0-1,0.1-1.7c-1,0.6-1.6,1.1-1.6,1.8c0,0.8,0.7,1,2,1c1.2,0,2.7-0.2,3.9-0.4l-0.1,1.8
	c-0.9,0.1-2.6,0.2-3.9,0.2c-2.2,0-3.8-0.5-3.8-2.3c0-1.8,1.7-2.9,3.3-3.7c-0.2-0.3-0.6-0.5-1-0.5c-0.8,0-1.6,0.4-2.2,1
	c-0.4,0.4-0.8,0.9-1.3,1.5l-1.5-1.1c1.5-1.3,2.4-2.6,3.1-3.8h-0.2c-0.6,0-1.6,0-2.3-0.1v-1.6c0.7,0.1,1.7,0.2,2.4,0.2h0.7
	c0.2-0.6,0.3-1.2,0.3-1.6l1.8,0.2c-0.1,0.3-0.2,0.8-0.3,1.4c1.3-0.1,2.7-0.2,3.9-0.4l0,1.6c-1.3,0.2-3,0.3-4.5,0.4
	c-0.2,0.5-0.5,1-0.8,1.4c0.4-0.2,1.1-0.3,1.6-0.3c0.8,0,1.5,0.4,1.8,1.1c0.7-0.3,1.3-0.6,1.9-0.8c0.5-0.2,1-0.5,1.5-0.7l0.7,1.6
	c-0.4,0.1-1.2,0.4-1.7,0.6c-0.6,0.2-1.4,0.5-2.3,0.9c0,0.8,0,1.8,0.1,2.4H108.4z"/>
<path class="st0" d="M126.7,29.5c0.5,0,0.6-0.2,0.6-1.9c0.4,0.3,1.1,0.5,1.5,0.7c-0.2,2.2-0.6,2.8-2,2.8H125c-1.7,0-2.1-0.5-2.1-2.1
	v-2.2h-1.7c-0.3,2.2-1.1,3.7-4.6,4.5c-0.2-0.4-0.6-1.1-0.9-1.5c2.9-0.5,3.5-1.5,3.7-3h-1.7v-8.2h9.2v8.2h-2.3V29
	c0,0.4,0.1,0.5,0.6,0.5H126.7z M119.4,20.9h5.9V20h-5.9V20.9z M119.4,23.1h5.9v-0.9h-5.9V23.1z M119.4,25.3h5.9v-0.9h-5.9V25.3z"/>
<path class="st0" d="M140.1,20.4c-0.3,0.2-0.7,0.4-1,0.6c-0.7,0.5-2.2,1.8-3.1,2.5c0.5-0.1,0.9-0.2,1.3-0.2c2.4,0,4.1,1.5,4.1,3.5
	c0,2.2-1.7,3.9-5,3.9c-1.9,0-3.4-0.9-3.4-2.3c0-1.1,1-2.2,2.5-2.2c1.7,0,2.7,1.1,3,2.4c0.8-0.4,1.1-1,1.1-1.9c0-1.2-1.3-2.1-2.9-2.1
	c-2.1,0-3.5,1.1-5,2.8l-1.3-1.3c1-0.8,2.6-2.2,3.5-2.9c0.8-0.6,2.2-1.8,2.9-2.4c-0.7,0-2.6,0.1-3.3,0.2c-0.4,0-0.8,0.1-1.1,0.1
	l-0.1-1.8c0.4,0,0.9,0.1,1.3,0.1c0.7,0,3.7-0.1,4.5-0.1c0.6,0,0.9-0.1,1.1-0.1L140.1,20.4z M136.9,29.1c-0.1-0.9-0.6-1.5-1.4-1.5
	c-0.5,0-0.9,0.3-0.9,0.7c0,0.5,0.6,0.9,1.4,0.9C136.4,29.2,136.7,29.1,136.9,29.1z"/>
<circle id="楕円形_17" class="st0" cx="24" cy="24" r="24"/>
<g id="shopping-cart_1_" transform="translate(1145 60.845)">
	<g id="グループ化_76" transform="translate(0 21.155)">
		<path id="パス_3" class="st1" d="M-1114.3-51.4h-10.5l-0.7-2.6h13.8l3-11.8h-19.7l-1-4.2h-5.5v1.5h4.3l4.3,17.1
			c-1.5,0.3-2.4,1.8-2.1,3.3c0.3,1.5,1.8,2.4,3.3,2.1c1.5-0.3,2.4-1.8,2.1-3.3c0-0.2-0.1-0.4-0.2-0.6h6.6c-0.7,1.4-0.1,3,1.3,3.7
			c1.4,0.7,3,0.1,3.7-1.3c0.7-1.4,0.1-3-1.3-3.7C-1113.4-51.3-1113.8-51.4-1114.3-51.4L-1114.3-51.4z"/>
	</g>
</g>
</svg>
