<svg xmlns="http://www.w3.org/2000/svg" width="524.882" height="30" viewBox="0 0 524.882 30">
  <g id="グループ化_760" data-name="グループ化 760" transform="translate(-90 -15)">
    <path id="パス_51" data-name="パス 51" d="M57.324,29.15V0h5.292V29.15H57.324M99.419,0H93.8L88.925,8.072,84.022,0H78.4l8.042,13.3V29.15h5.322V12.676L99.419,0M139.3,29.15V0H134.01V29.15H139.3M110.541,0h-9.926V4.9h9.926V0m15.546,12.048L132.066,0h-5.591l-4.9,9.836V0h-5.292V29.15h5.292v-8.1l1.405-2.84,4.365,10.942h5.591l-6.846-17.1M53.975,29.15V0H48.684V29.15h5.292M13.375,4.724V0H.4V29.15H5.692V15.307h6.727V10.584H5.692V4.724h7.684m18.476,16.8V0H23.779V4.724h2.78v17.49c0,2.511-5.023,2.422-5.023.06V0H16.1V22.841c0,8.521,15.786,9.029,15.786-.149,0-.419,0-.807-.03-1.166M45.335,0H36.067V4.724h3.976V21.705c0,4.245-5.142,4.544-6.727,2.242-.03-.03-.06-.06-.06-.09v4.9c4.335,3.049,12.108.329,12.108-6.607C45.335,21.705,45.335,0,45.335,0m68.4,14.44v-.06a8.012,8.012,0,1,0-16.025,0v.06h0v7.355a8.012,8.012,0,1,0,16.025,0h0V14.44h0m-5.531.269v6.727h0a2.481,2.481,0,1,1-4.963,0V14.709h0v-.03a2.482,2.482,0,1,1,4.963.03h0M81.989,29.15,75.143,14.919A7.706,7.706,0,0,0,72.422,0H65.665V29.15h5.292V17.639l5.471,11.51h5.561M75.352,7.713A2.743,2.743,0,0,1,72.6,10.464H70.957V4.933H72.6A2.769,2.769,0,0,1,75.352,7.713Z" transform="translate(89.6 15)" fill="#004da3"/>
    <g id="グループ化_263" data-name="グループ化 263" transform="translate(245 17)">
      <path id="パス_52" data-name="パス 52" d="M17.572,119.3a2.382,2.382,0,0,1,2.385,2.544,23.222,23.222,0,0,1-6.122,12.006,23.479,23.479,0,0,1-12.324,5.725.821.821,0,0,1-.875-.875c0-.716.636-.875,1.034-.954A17.818,17.818,0,0,0,13.437,128.6a22.2,22.2,0,0,0,2.147-6.6.857.857,0,0,0-.875-.954H1.034C0,121.049,0,120.334,0,120.175c0-.8.716-.875,1.034-.875Z" transform="translate(0 -115.484)" fill="#004da3"/>
      <path id="パス_53" data-name="パス 53" d="M36.927,128.041a20.213,20.213,0,0,0-4.214-2.465c-.716-.318-1.113-.477-1.113-1.113,0-.4.239-.875,1.034-.875A31.752,31.752,0,0,1,38.2,124.86c1.193.4,2.385.875,2.385,2.147a2,2,0,0,1-1.829,1.988C38.2,128.915,38.12,128.915,36.927,128.041Zm-1.59,6.838a21.817,21.817,0,0,0,16.22-10.5c.954-1.431,1.034-1.59,1.511-1.59a.9.9,0,0,1,.954.875,25.374,25.374,0,0,1-7,10.018,26.425,26.425,0,0,1-12.006,5.486c-1.749,0-1.908-1.988-1.908-2.147C33.111,135.2,34.065,135.038,35.337,134.878ZM39.472,121.2a14.49,14.49,0,0,0-3.5-2.783c-.636-.4-.8-.636-.8-.954a.917.917,0,0,1,.954-.954,23.1,23.1,0,0,1,4.055,1.352c3.021,1.352,3.18,1.908,3.18,2.624a2.006,2.006,0,0,1-1.908,1.988C40.823,122.475,40.664,122.4,39.472,121.2Zm11.847-1.59a1.126,1.126,0,0,1-1.034,1.113c-.4,0-.477-.08-1.113-.8a11.737,11.737,0,0,0-1.59-1.511.826.826,0,0,1-.318-.636.852.852,0,0,1,.8-.8C48.377,116.989,51.319,118.658,51.319,119.612Zm.954-3.26c1.034.636,1.113.954,1.113,1.352a1.111,1.111,0,0,1-1.034,1.034c-.318,0-.318,0-1.272-.875-.239-.159-1.193-.954-1.352-1.113a.661.661,0,0,1-.239-.557.749.749,0,0,1,.8-.8C50.762,115.319,51.8,116.035,52.273,116.353Z" transform="translate(-6.475 -114.683)" fill="#004da3"/>
      <path id="パス_54" data-name="パス 54" d="M69.937,137.691a.88.88,0,0,0,.875.875H89.5c.318,0,.954.08.954.8,0,.636-.636.8-.954.8H69.46c-1.193,0-3.26-.318-3.26-3.021V119.721c0-2.147,1.352-3.021,3.18-3.021H88.94c.318,0,.954.08.954.8,0,.636-.636.8-.954.8H70.812a.94.94,0,0,0-.875.875Zm12.642-8.905A13.11,13.11,0,0,0,88.94,136.1a.805.805,0,0,1,.477.716.786.786,0,0,1-.716.8,15.75,15.75,0,0,1-8.428-5.725c-2.306,3.419-7.633,5.725-8.508,5.725a.732.732,0,0,1-.716-.8.775.775,0,0,1,.477-.716c3.578-1.59,5.725-4.135,6.361-7.394H71.845c-.318,0-.954-.079-.954-.716s.557-.8.954-.8h6.281c.08-.557.08-3.578.08-4.294H75.582c-1.113,1.272-3.021,3.18-3.657,3.18a.786.786,0,0,1-.8-.716c0-.239.08-.318.239-.557a24.97,24.97,0,0,0,2.147-4.612c.318-1.034.557-1.829,1.749-1.829.875,0,2.147.557,2.147,1.59a2.259,2.259,0,0,1-.716,1.511H86.952c.318,0,.954.08.954.8,0,.636-.557.8-.954.8H81.864a37.607,37.607,0,0,1-.159,4.294h6.44c.318,0,.954.08.954.8,0,.636-.557.716-.875.716H82.579Z" transform="translate(-13.564 -114.951)" fill="#004da3"/>
      <path id="パス_55" data-name="パス 55" d="M104.319,126.431a1.645,1.645,0,0,1-.875.239c-.8,0-1.034-.715-1.193-1.352a11.31,11.31,0,0,0-1.193-3.021.853.853,0,0,1-.159-.477.734.734,0,0,1,.8-.716,7.038,7.038,0,0,1,2.544,1.908V120.23c0-1.431.716-2.624,2.783-2.624h5.8a3.118,3.118,0,0,1,.159-1.352,2.075,2.075,0,0,1,1.749-.954,1.907,1.907,0,0,1,1.749.954,3.311,3.311,0,0,1,.159,1.352h8.985c.318,0,.954.08.954.8,0,.636-.636.8-.954.8h-8.905a1.479,1.479,0,0,1,1.431,1.511,2.351,2.351,0,0,1-.159.8h7.474c.318,0,.954.08.954.716,0,.716-.636.8-.954.8h-4.85a12.365,12.365,0,0,0,1.67,2.306c.318-.477.875-1.431.954-1.59a.857.857,0,0,1,.875-.477c.716,0,1.59.557,1.59,1.272,0,.8-1.193,1.431-2.226,1.908a15.353,15.353,0,0,0,2.862,1.749c.318.159.716.318.716.8a.71.71,0,0,1-.716.716,10.141,10.141,0,0,1-2.624-.875v3.578a2.179,2.179,0,0,1-2.465,2.306h-2.306v3.339c0,1.431-.716,2.624-2.783,2.624h-3.18c-.239,0-.954-.08-.954-.8s.636-.8.954-.8h1.67c.636,0,.8-.239.8-.8v-3.657h-2.544a2.143,2.143,0,0,1-2.465-2.306v-3.5c-1.67.875-1.908.875-2.147.875a.658.658,0,0,1-.557-.318,15.459,15.459,0,0,1-3.26,8.905c-.4.477-1.829,2.226-2.465,2.226a.784.784,0,0,1-.8-.716,12.387,12.387,0,0,1,1.272-2.226,14.488,14.488,0,0,0,1.67-6.122c-.318.4-1.352,1.59-2.067,1.59-.557,0-1.193-.636-1.193-1.67a1.33,1.33,0,0,1,.8-1.352,14.916,14.916,0,0,0,2.544-1.272v-2.306Zm2.783,13.04c0-.4.239-.557.557-.795a13.935,13.935,0,0,0,2.942-3.339,1.518,1.518,0,0,1,1.113-.557c.636,0,1.908.4,1.908,1.59,0,.4-.079.875-1.59,1.908a12.473,12.473,0,0,1-4.294,1.988A.785.785,0,0,1,107.1,139.471Zm.636-10.893a1.22,1.22,0,0,1,.477-.318,13,13,0,0,0,2.147-1.511c-.239-.159-.4-.4-.716-1.113a7.483,7.483,0,0,1-.954-1.749.627.627,0,0,1,.636-.636s2.385.716,2.942,1.59a8.036,8.036,0,0,0,1.193-1.829h-4.294c-.239,0-.954-.08-.954-.8,0-.636.636-.716.954-.716h5.009c.079-.239.477-1.272.557-1.511.239-.557.716-.636.954-.8h-7.156c-.636,0-.8.239-.8.8v8.587Zm12.881-1.749a12.124,12.124,0,0,1-3.5-3.737,17.388,17.388,0,0,1-3.578,3.737Zm-.239,3.18v-.8c0-.477-.159-.8-.8-.8h-4.93c-.636,0-.8.318-.8.8v.8Zm-6.52,1.431v.874c0,.477.159.8.8.8h4.93c.636,0,.8-.238.8-.8v-.874Zm7.156,3.5c.239,0,5.248,1.511,5.248,3.26a2.069,2.069,0,0,1-2.067,1.829c-.716,0-.875-.159-2.147-1.988-.239-.318-1.272-1.511-1.59-1.829a.566.566,0,0,1-.239-.477A.791.791,0,0,1,121.016,134.939Z" transform="translate(-20.674 -114.664)" fill="#004da3"/>
      <path id="パス_56" data-name="パス 56" d="M162.348,126.259c.318,0,.954.08.954.716,0,.716-.636.8-.954.8h-5.486c1.113,1.59,2.147,2.624,6.2,4.373a.791.791,0,0,1,.556.716.71.71,0,0,1-.716.716,17.988,17.988,0,0,1-2.385-.636,2.6,2.6,0,0,1,.159.954V138.5c0,1.59-1.193,2.067-2.385,2.067h-4.612c-1.351,0-2.385-.557-2.385-2.067v-4.611c0-1.59,1.193-2.067,2.385-2.067h4.135a12.852,12.852,0,0,1-5.566-4.135h-3.1a35.83,35.83,0,0,1-6.122,4.135h4.453c1.352,0,2.385.557,2.385,2.067V138.5c0,1.59-1.193,2.067-2.385,2.067h-4.691c-1.352,0-2.385-.557-2.385-2.067v-4.611a3.417,3.417,0,0,1,.159-.954,13.58,13.58,0,0,1-2.147.716.786.786,0,0,1-.716-.8c0-.318.159-.477.557-.716a21.783,21.783,0,0,0,6.679-4.453h-6.043c-.239,0-.954-.08-.954-.716,0-.716.636-.8.954-.8h7.315c.8-1.113,1.113-1.749,1.431-2.226a2.2,2.2,0,0,1-.716.08h-4.771c-1.352,0-2.385-.557-2.385-2.067v-3.5c0-1.59,1.193-2.067,2.385-2.067h4.771c1.352,0,2.385.557,2.385,2.067v3.817c.954-.159,2.624.4,2.624,1.67,0,.636-.318,1.272-1.272,2.306h11.688Zm-16.379-7.633c0-.477-.159-.716-.716-.716h-1.272c-.557,0-.715.159-.715.716v3.26c0,.477.159.716.715.716h1.272c.557,0,.716-.159.716-.716Zm.557,15.425c0-.477-.159-.636-.716-.636h-1.193c-.557,0-.716.159-.716.636v4.373c0,.477.079.636.716.636h1.193c.557,0,.716-.159.716-.636Zm15.027-12.006c0,1.59-1.193,2.067-2.385,2.067h-4.93c-1.352,0-2.385-.557-2.385-2.067v-3.5c0-1.59,1.193-2.067,2.385-2.067h4.93c1.352,0,2.385.557,2.385,2.067Zm-4.134,12.006c0-.477-.159-.636-.636-.636H155.59c-.557,0-.636.159-.636.636v4.373c0,.477.159.636.636.636h1.193c.557,0,.636-.159.636-.636Zm.716-15.425c0-.477-.159-.716-.716-.716h-1.352c-.557,0-.636.159-.636.716v3.26c0,.477.159.716.636.716h1.352c.557,0,.716-.159.716-.716Z" transform="translate(-28.214 -114.889)" fill="#004da3"/>
      <path id="パス_57" data-name="パス 57" d="M176.534,124.153c-1.034,0-1.034-.716-1.034-.875,0-.8.716-.875,1.034-.875H189.1v-3.9c0-.477,0-1.908,1.988-1.908s1.988,1.272,1.988,1.829V122.4h4.691c.557,0,1.034.239,1.034.875,0,.159,0,.875-1.034.875h-4.691V136.08c0,1.908-.08,3.658-3.339,3.658a18.749,18.749,0,0,1-3.816-.4c-.557-.159-1.272-.318-1.272-1.034a.835.835,0,0,1,.954-.875c.159,0,.875.159,1.034.159a5.631,5.631,0,0,0,1.193.08c.636,0,1.272-.159,1.272-1.511V125.9a24.613,24.613,0,0,1-7.633,8.667c-1.59,1.113-4.373,2.942-5.009,2.942a.94.94,0,0,1-.875-.875c0-.4.08-.477,1.193-1.272a21.36,21.36,0,0,0,8.428-11.291h-8.667Z" transform="translate(-35.959 -114.93)" fill="#004da3"/>
      <path id="パス_58" data-name="パス 58" d="M214.342,135.346a24.863,24.863,0,0,0,14.073-7.395,17.123,17.123,0,0,0,2.942-3.9.959.959,0,0,1,.875-.636.871.871,0,0,1,.875.8c0,.159-1.431,4.85-6.838,9.382-4.93,4.214-11.926,6.122-12.96,6.122a2.079,2.079,0,0,1-1.908-2.226C211.4,135.9,212.434,135.744,214.342,135.346Zm3.26-13.278a17.852,17.852,0,0,0-4.453-3.419c-.715-.4-.954-.557-.954-.954a.8.8,0,0,1,.8-.8,22.9,22.9,0,0,1,4.93,1.59c3.976,1.749,4.055,2.465,4.055,3.18a2.23,2.23,0,0,1-1.908,2.147C219.113,123.738,218.954,123.579,217.6,122.068Z" transform="translate(-43.315 -114.992)" fill="#004da3"/>
      <path id="パス_59" data-name="パス 59" d="M263.283,124.345a1.9,1.9,0,0,1,1.988,2.067c0,.08,0,5.566-5.645,9.621a18.071,18.071,0,0,1-8.349,3.339c-.477.08-1.67.239-1.908.239a.9.9,0,0,1-.954-.875c0-.8.557-.875,1.431-1.034,4.93-.8,7.951-2.783,9.78-6.679a13.266,13.266,0,0,0,1.193-4.214.693.693,0,0,0-.716-.8H245.234c-.556,0-1.034-.239-1.034-.875,0-.8.8-.875,1.034-.875h18.049ZM262.09,118.7c1.033,0,1.033.8,1.033.875,0,.159,0,.875-1.033.875H248.176c-.557,0-1.034-.239-1.034-.875s.477-.875,1.034-.875Z" transform="translate(-50.036 -115.361)" fill="#004da3"/>
      <path id="パス_60" data-name="パス 60" d="M291.787,138.643c0,.477,0,1.829-1.988,1.829s-1.988-1.272-1.988-1.829V126.557a33.835,33.835,0,0,1-7.395,2.862c-.716.159-2.624.716-3.021.716a.871.871,0,0,1-.8-.875c0-.557.477-.716.8-.8a29.674,29.674,0,0,0,15.425-10.654c.636-.875,1.113-1.511,2.147-1.511a2.357,2.357,0,0,1,2.385,2.147c0,.716-.239,1.113-1.988,2.783a28.822,28.822,0,0,1-3.578,3.021v14.391Z" transform="translate(-56.674 -114.869)" fill="#004da3"/>
      <path id="パス_61" data-name="パス 61" d="M314.142,135.346a24.863,24.863,0,0,0,14.073-7.395,17.134,17.134,0,0,0,2.942-3.9.959.959,0,0,1,.875-.636.871.871,0,0,1,.875.8c0,.159-1.431,4.85-6.838,9.382-4.93,4.214-11.927,6.122-12.96,6.122a2.078,2.078,0,0,1-1.908-2.226C311.28,135.9,312.234,135.744,314.142,135.346Zm3.26-13.278a17.854,17.854,0,0,0-4.453-3.419c-.716-.4-.954-.557-.954-.954a.8.8,0,0,1,.795-.8,22.9,22.9,0,0,1,4.93,1.59c3.976,1.749,4.055,2.465,4.055,3.18a2.23,2.23,0,0,1-1.908,2.147C318.992,123.738,318.833,123.579,317.4,122.068Z" transform="translate(-63.764 -114.992)" fill="#004da3"/>
      <path id="パス_62" data-name="パス 62" d="M349.368,128.15a23.021,23.021,0,0,0-4.055-2.306c-.716-.318-1.113-.477-1.113-1.113,0-.239.08-.875,1.034-.875a25.607,25.607,0,0,1,4.612.954c2.226.716,3.26,1.034,3.26,2.385a2,2,0,0,1-1.829,1.988C350.8,129.183,350.72,129.1,349.368,128.15Zm-1.352,7a21.817,21.817,0,0,0,16.22-10.5c.954-1.431,1.034-1.59,1.511-1.59a.9.9,0,0,1,.954.875,25.372,25.372,0,0,1-7,10.018A26.426,26.426,0,0,1,347.7,139.44c-1.749,0-1.908-1.988-1.908-2.147C345.711,135.464,346.665,135.305,348.017,135.146Zm3.976-13.755a13.956,13.956,0,0,0-3.5-2.783c-.716-.4-.716-.716-.716-.954a.917.917,0,0,1,.954-.954,27.733,27.733,0,0,1,4.532,1.59c2.385,1.034,2.624,1.59,2.624,2.385a2.006,2.006,0,0,1-1.908,1.988C353.423,122.743,353.264,122.663,351.992,121.391Z" transform="translate(-70.525 -114.951)" fill="#004da3"/>
      <path id="パス_63" data-name="パス 63" d="M380.37,133.41c-.477,0-.875-.239-.875-.716,0-.636.636-.636.875-.636h10.813v-4.691a.734.734,0,0,0-.8-.716H379.734c-.477,0-.874-.239-.874-.716s.318-.636.874-.636h12.722a1.9,1.9,0,0,1,1.988,1.908V138.9a1.9,1.9,0,0,1-1.988,1.908H379.575c-.477,0-.875-.159-.875-.636s.4-.716.875-.716h10.972a.734.734,0,0,0,.8-.716V133.49H380.37Z" transform="translate(-77.594 -116.713)" fill="#004da3"/>
      <path id="パス_64" data-name="パス 64" d="M407.688,130.973a33.462,33.462,0,0,0-1.352-3.419,8.92,8.92,0,0,1-.636-1.431.731.731,0,0,1,.8-.716c.477,0,1.352,1.113,1.988,1.829.875,1.034,2.306,3.021,2.306,3.9a1.55,1.55,0,0,1-1.511,1.511C408.244,132.643,408.006,132.166,407.688,130.973Zm15.5-5.645a22.468,22.468,0,0,1-3.9,10.734,17.563,17.563,0,0,1-9.621,5.884.713.713,0,0,1-.716-.716.705.705,0,0,1,.557-.716c2.465-.954,9.462-3.5,10.177-14.471.079-1.352.159-2.147,1.749-2.147C421.761,123.817,423.192,124.056,423.192,125.328Zm-9.78,3.339a15.009,15.009,0,0,0-1.272-3.021c-.238-.477-.238-.557-.238-.716a.784.784,0,0,1,.795-.716c.4,0,1.431,1.193,1.909,1.749.795.954,1.908,2.385,1.908,3.18a1.523,1.523,0,0,1-1.431,1.431C413.969,130.655,413.89,130.337,413.413,128.667Z" transform="translate(-83.126 -116.423)" fill="#004da3"/>
      <path id="パス_65" data-name="パス 65" d="M451.992,118.635a2.36,2.36,0,0,1,2.385,2.465,22.955,22.955,0,0,1-6.2,12.006,23.587,23.587,0,0,1-12.245,5.725.821.821,0,0,1-.875-.875c0-.715.636-.875,1.034-.954a17.818,17.818,0,0,0,11.768-9.144,22.2,22.2,0,0,0,2.147-6.6c0-.636-.318-.954-.875-.954h-13.6c-1.034,0-1.034-.8-1.034-.875,0-.8.716-.875,1.034-.875h16.459Zm6.917-1.352a2.783,2.783,0,1,1-2.783-2.783A2.817,2.817,0,0,1,458.91,117.283Zm-4.134,0a1.34,1.34,0,0,0,1.352,1.352,1.294,1.294,0,0,0,1.352-1.352,1.352,1.352,0,1,0-2.7,0Z" transform="translate(-89.027 -114.5)" fill="#004da3"/>
    </g>
  </g>
</svg>
