<svg xmlns="http://www.w3.org/2000/svg" width="170" height="55.842" viewBox="0 0 170 55.842">
  <g id="グループ化_756" data-name="グループ化 756" transform="translate(0.459 12.425)">
    <path id="パス_52" data-name="パス 52" d="M22.017,119.3a2.985,2.985,0,0,1,2.989,3.188c0,.5-1.594,9.166-7.671,15.043C11.457,143.21,2.79,144.7,1.893,144.7a1.029,1.029,0,0,1-1.1-1.1c0-.9.8-1.1,1.3-1.2a22.325,22.325,0,0,0,14.745-11.457,27.814,27.814,0,0,0,2.69-8.269,1.074,1.074,0,0,0-1.1-1.2H1.3c-1.3,0-1.3-.9-1.3-1.1,0-1,.9-1.1,1.3-1.1Z" transform="translate(-0.12 -127.74)" fill="#004da3"/>
    <path id="パス_53" data-name="パス 53" d="M38.275,131.24a25.328,25.328,0,0,0-5.28-3.088c-.9-.4-1.395-.6-1.395-1.395,0-.5.3-1.1,1.3-1.1a39.785,39.785,0,0,1,6.974,1.594c1.494.5,2.989,1.1,2.989,2.69a2.5,2.5,0,0,1-2.291,2.491C39.869,132.336,39.769,132.336,38.275,131.24Zm-1.993,8.568c7.87-1,15.043-4.882,20.323-13.15,1.2-1.793,1.3-1.992,1.893-1.992a1.131,1.131,0,0,1,1.2,1.1,31.792,31.792,0,0,1-8.767,12.553,33.11,33.11,0,0,1-15.043,6.874c-2.192,0-2.391-2.491-2.391-2.69C33.493,140.207,34.688,140.007,36.282,139.808Zm5.18-17.135a18.155,18.155,0,0,0-4.383-3.487c-.8-.5-1-.8-1-1.2a1.149,1.149,0,0,1,1.2-1.2,28.941,28.941,0,0,1,5.081,1.694c3.786,1.694,3.985,2.391,3.985,3.288a2.514,2.514,0,0,1-2.391,2.491C43.157,124.267,42.957,124.167,41.463,122.673Zm14.844-1.993a1.411,1.411,0,0,1-1.3,1.395c-.5,0-.6-.1-1.395-1a14.7,14.7,0,0,0-1.993-1.893,1.035,1.035,0,0,1-.4-.8,1.067,1.067,0,0,1,1-1C52.621,117.392,56.307,119.485,56.307,120.68Zm1.2-4.085c1.3.8,1.395,1.2,1.395,1.694a1.392,1.392,0,0,1-1.3,1.3c-.4,0-.4,0-1.594-1.1-.3-.2-1.494-1.2-1.694-1.395a.828.828,0,0,1-.3-.7.938.938,0,0,1,1-1C55.61,115.3,56.9,116.2,57.5,116.6Z" transform="translate(-0.239 -127.725)" fill="#004da3"/>
    <path id="パス_54" data-name="パス 54" d="M70.882,143a1.1,1.1,0,0,0,1.1,1.1H95.39c.4,0,1.2.1,1.2,1,0,.8-.8,1-1.2,1H70.285c-1.494,0-4.085-.4-4.085-3.786V120.486c0-2.69,1.694-3.786,3.985-3.786H94.693c.4,0,1.2.1,1.2,1,0,.8-.8,1-1.2,1H71.978a1.178,1.178,0,0,0-1.1,1.1Zm15.84-11.158a16.427,16.427,0,0,0,7.97,9.165,1.009,1.009,0,0,1,.6.9.985.985,0,0,1-.9,1,19.735,19.735,0,0,1-10.56-7.173c-2.889,4.284-9.564,7.173-10.66,7.173a.917.917,0,0,1-.9-1,.971.971,0,0,1,.6-.9c4.483-1.992,7.173-5.18,7.97-9.265H73.273c-.4,0-1.2-.1-1.2-.9s.7-1,1.2-1h7.87c.1-.7.1-4.483.1-5.38H77.956c-1.395,1.594-3.786,3.985-4.583,3.985a.985.985,0,0,1-1-.9c0-.3.1-.4.3-.7a31.288,31.288,0,0,0,2.69-5.778c.4-1.3.7-2.291,2.192-2.291,1.1,0,2.69.7,2.69,1.993a2.831,2.831,0,0,1-.9,1.893H92.2c.4,0,1.2.1,1.2,1,0,.8-.7,1-1.2,1H85.826a47.126,47.126,0,0,1-.2,5.38H93.7c.4,0,1.2.1,1.2,1,0,.8-.7.9-1.1.9H86.723Z" transform="translate(-0.368 -127.73)" fill="#004da3"/>
    <path id="パス_55" data-name="パス 55" d="M105.184,129.247a2.062,2.062,0,0,1-1.1.3c-1,0-1.3-.9-1.494-1.694a14.171,14.171,0,0,0-1.494-3.786,1.068,1.068,0,0,1-.2-.6.92.92,0,0,1,1-.9c.6,0,2.391,1.494,3.188,2.391v-3.487c0-1.793.9-3.288,3.487-3.288h7.273a3.907,3.907,0,0,1,.2-1.694,2.6,2.6,0,0,1,2.192-1.2,2.39,2.39,0,0,1,2.192,1.2,4.149,4.149,0,0,1,.2,1.694h11.258c.4,0,1.2.1,1.2,1,0,.8-.8,1-1.2,1H120.725a1.853,1.853,0,0,1,1.793,1.893,2.945,2.945,0,0,1-.2,1h9.365c.4,0,1.2.1,1.2.9,0,.9-.8,1-1.2,1h-6.077a15.494,15.494,0,0,0,2.092,2.889c.4-.6,1.1-1.793,1.2-1.992a1.074,1.074,0,0,1,1.1-.6c.9,0,1.992.7,1.992,1.594,0,1-1.494,1.793-2.789,2.391a19.235,19.235,0,0,0,3.586,2.192c.4.2.9.4.9,1a.889.889,0,0,1-.9.9,12.705,12.705,0,0,1-3.288-1.1v4.483c0,1.694-1,2.889-3.088,2.889h-2.889v4.184c0,1.793-.9,3.288-3.487,3.288h-3.985c-.3,0-1.2-.1-1.2-1s.8-1,1.2-1h2.092c.8,0,1-.3,1-1v-4.583h-3.188c-2.192,0-3.088-1.2-3.088-2.889v-4.383c-2.092,1.1-2.391,1.1-2.69,1.1a.824.824,0,0,1-.7-.4,19.37,19.37,0,0,1-4.085,11.158c-.5.6-2.291,2.79-3.088,2.79a.983.983,0,0,1-1-.9c0-.5,1.395-2.391,1.594-2.79a18.153,18.153,0,0,0,2.092-7.671c-.4.5-1.694,1.992-2.59,1.992-.7,0-1.494-.8-1.494-2.092a1.667,1.667,0,0,1,1-1.694,18.689,18.689,0,0,0,3.188-1.594v-2.889Zm3.487,16.338c0-.5.3-.7.7-1,1.494-1.1,2.192-2.192,3.686-4.184a1.9,1.9,0,0,1,1.395-.7c.8,0,2.391.5,2.391,1.992,0,.5-.1,1.1-1.992,2.391a15.628,15.628,0,0,1-5.38,2.491A.984.984,0,0,1,108.671,145.586Zm.8-13.649a1.528,1.528,0,0,1,.6-.4,16.288,16.288,0,0,0,2.69-1.893c-.3-.2-.5-.5-.9-1.395a9.375,9.375,0,0,1-1.2-2.192.786.786,0,0,1,.8-.8s2.989.9,3.686,1.993a10.069,10.069,0,0,0,1.494-2.291h-5.38c-.3,0-1.2-.1-1.2-1,0-.8.8-.9,1.2-.9h6.276c.1-.3.6-1.594.7-1.893.3-.7.9-.8,1.2-1h-8.966c-.8,0-1,.3-1,1v10.759Zm16.139-2.192a15.191,15.191,0,0,1-4.384-4.682,21.787,21.787,0,0,1-4.483,4.682Zm-.3,3.985v-1c0-.6-.2-1-1-1h-6.177c-.8,0-1,.4-1,1v1Zm-8.169,1.793v1.1c0,.6.2,1,1,1h6.177c.8,0,1-.3,1-1v-1.1Zm8.966,4.383c.3,0,6.575,1.893,6.575,4.085a2.593,2.593,0,0,1-2.59,2.292c-.9,0-1.1-.2-2.69-2.491-.3-.4-1.594-1.893-1.993-2.292a.71.71,0,0,1-.3-.6A.992.992,0,0,1,126.105,139.907Z" transform="translate(-0.499 -127.725)" fill="#004da3"/>
    <path id="パス_56" data-name="パス 56" d="M168.584,128.753c.4,0,1.2.1,1.2.9,0,.9-.8,1-1.2,1H161.71c1.395,1.993,2.69,3.288,7.771,5.479a.991.991,0,0,1,.7.9.889.889,0,0,1-.9.9,22.536,22.536,0,0,1-2.989-.8,3.252,3.252,0,0,1,.2,1.2V144.1c0,1.993-1.495,2.59-2.989,2.59h-5.778c-1.693,0-2.989-.7-2.989-2.59v-5.778c0-1.993,1.494-2.59,2.989-2.59h5.181a16.1,16.1,0,0,1-6.974-5.181h-3.886a44.892,44.892,0,0,1-7.671,5.181h5.579c1.694,0,2.989.7,2.989,2.59V144.1c0,1.993-1.494,2.59-2.989,2.59h-5.878c-1.694,0-2.989-.7-2.989-2.59v-5.778a4.282,4.282,0,0,1,.2-1.2,17.014,17.014,0,0,1-2.69.9.985.985,0,0,1-.9-1c0-.4.2-.6.7-.9a27.293,27.293,0,0,0,8.369-5.579h-7.572c-.3,0-1.2-.1-1.2-.9,0-.9.8-1,1.2-1h9.166c1-1.395,1.395-2.192,1.793-2.79a2.759,2.759,0,0,1-.9.1h-5.978c-1.694,0-2.989-.7-2.989-2.59V118.99c0-1.992,1.494-2.59,2.989-2.59h5.978c1.694,0,2.989.7,2.989,2.59v4.782c1.2-.2,3.288.5,3.288,2.092,0,.8-.4,1.594-1.594,2.889h14.645Zm-20.523-9.564c0-.6-.2-.9-.9-.9H145.57c-.7,0-.9.2-.9.9v4.085c0,.6.2.9.9.9h1.594c.7,0,.9-.2.9-.9Zm.7,19.327c0-.6-.2-.8-.9-.8h-1.495c-.7,0-.9.2-.9.8V144c0,.6.1.8.9.8h1.495c.7,0,.9-.2.9-.8Zm18.829-15.043c0,1.992-1.494,2.59-2.989,2.59h-6.177c-1.693,0-2.989-.7-2.989-2.59V119.09c0-1.993,1.494-2.59,2.989-2.59H164.6c1.694,0,2.989.7,2.989,2.59Zm-5.18,15.043c0-.6-.2-.8-.8-.8h-1.494c-.7,0-.8.2-.8.8V144c0,.6.2.8.8.8h1.494c.7,0,.8-.2.8-.8Zm.9-19.327c0-.6-.2-.9-.9-.9h-1.694c-.7,0-.8.2-.8.9v4.085c0,.6.2.9.8.9h1.694c.7,0,.9-.2.9-.9Z" transform="translate(-0.637 -127.729)" fill="#004da3"/>
    <path id="パス_57" data-name="パス 57" d="M176.263,122.175c-.763,0-.763-.528-.763-.646,0-.587.528-.645.763-.645h9.272v-2.875c0-.352,0-1.408,1.467-1.408s1.467.939,1.467,1.35v2.934h3.462c.411,0,.763.176.763.645,0,.117,0,.646-.763.646h-3.462v8.8c0,1.408-.059,2.7-2.465,2.7a13.838,13.838,0,0,1-2.817-.293c-.411-.117-.939-.235-.939-.763a.616.616,0,0,1,.7-.645c.117,0,.645.117.763.117a4.156,4.156,0,0,0,.88.059c.469,0,.939-.117.939-1.115v-7.57a18.165,18.165,0,0,1-5.633,6.4,16.932,16.932,0,0,1-3.7,2.171.694.694,0,0,1-.646-.646c0-.293.059-.352.88-.939a15.765,15.765,0,0,0,6.22-8.333h-6.4Z" transform="translate(-175.959 -90.846)" fill="#004da3"/>
    <path id="パス_58" data-name="パス 58" d="M213.571,130.514a18.35,18.35,0,0,0,10.387-5.457,12.638,12.638,0,0,0,2.171-2.875.708.708,0,0,1,.646-.469.643.643,0,0,1,.646.587c0,.117-1.056,3.58-5.047,6.924a22.069,22.069,0,0,1-9.565,4.518A1.534,1.534,0,0,1,211.4,132.1C211.4,130.925,212.163,130.808,213.571,130.514Zm2.406-9.8a13.176,13.176,0,0,0-3.286-2.523c-.528-.293-.7-.411-.7-.7a.588.588,0,0,1,.587-.587,16.9,16.9,0,0,1,3.638,1.174c2.934,1.291,2.993,1.819,2.993,2.347a1.646,1.646,0,0,1-1.408,1.584C217.092,121.947,216.975,121.829,215.977,120.714Z" transform="translate(-190.793 -90.97)" fill="#004da3"/>
    <path id="パス_59" data-name="パス 59" d="M258.284,122.866a1.4,1.4,0,0,1,1.467,1.526,9.359,9.359,0,0,1-4.166,7.1,13.337,13.337,0,0,1-6.162,2.465c-.352.059-1.232.176-1.408.176a.666.666,0,0,1-.7-.646c0-.587.411-.646,1.056-.763,3.638-.587,5.868-2.054,7.218-4.929a9.791,9.791,0,0,0,.88-3.11.511.511,0,0,0-.528-.587H244.963c-.411,0-.763-.176-.763-.646,0-.587.587-.645.763-.645h13.321Zm-.88-4.166c.763,0,.763.587.763.645,0,.117,0,.646-.763.646H247.134c-.411,0-.763-.176-.763-.646s.352-.645.763-.645Z" transform="translate(-204.345 -91.714)" fill="#004da3"/>
    <path id="パス_60" data-name="パス 60" d="M287.808,132.79c0,.352,0,1.35-1.467,1.35s-1.467-.939-1.467-1.35v-8.92a24.972,24.972,0,0,1-5.457,2.113c-.528.117-1.936.528-2.23.528a.643.643,0,0,1-.587-.645c0-.411.352-.528.587-.587a21.9,21.9,0,0,0,11.384-7.863c.47-.646.822-1.115,1.584-1.115a1.739,1.739,0,0,1,1.76,1.584c0,.528-.176.822-1.467,2.054a21.273,21.273,0,0,1-2.641,2.23V132.79Z" transform="translate(-217.732 -90.722)" fill="#004da3"/>
    <path id="パス_61" data-name="パス 61" d="M313.371,130.514a18.35,18.35,0,0,0,10.387-5.457,12.647,12.647,0,0,0,2.171-2.875.708.708,0,0,1,.645-.469.643.643,0,0,1,.645.587c0,.117-1.056,3.58-5.046,6.924a22.07,22.07,0,0,1-9.565,4.518A1.534,1.534,0,0,1,311.2,132.1C311.259,130.925,311.963,130.808,313.371,130.514Zm2.406-9.8a13.177,13.177,0,0,0-3.286-2.523c-.528-.293-.7-.411-.7-.7a.588.588,0,0,1,.587-.587,16.9,16.9,0,0,1,3.638,1.174c2.934,1.291,2.993,1.819,2.993,2.347a1.646,1.646,0,0,1-1.408,1.584C316.951,121.947,316.834,121.829,315.777,120.714Z" transform="translate(-232.029 -90.97)" fill="#004da3"/>
    <path id="パス_62" data-name="パス 62" d="M348.014,125.15a16.99,16.99,0,0,0-2.993-1.7c-.528-.235-.822-.352-.822-.822,0-.176.059-.645.763-.645a18.9,18.9,0,0,1,3.4.7c1.643.528,2.406.763,2.406,1.76a1.474,1.474,0,0,1-1.35,1.467C349.071,125.913,349.012,125.854,348.014,125.15Zm-1,5.164a16.1,16.1,0,0,0,11.971-7.746c.7-1.056.763-1.174,1.115-1.174a.666.666,0,0,1,.7.646,18.725,18.725,0,0,1-5.164,7.394,19.5,19.5,0,0,1-8.861,4.049c-1.291,0-1.408-1.467-1.408-1.584C345.315,130.549,346.019,130.431,347.017,130.314Zm2.934-10.152a10.3,10.3,0,0,0-2.582-2.054c-.528-.293-.528-.528-.528-.7a.677.677,0,0,1,.7-.7,20.468,20.468,0,0,1,3.345,1.174c1.76.763,1.937,1.174,1.937,1.76a1.481,1.481,0,0,1-1.408,1.467C351.007,121.16,350.89,121.1,349.951,120.162Z" transform="translate(-245.664 -90.887)" fill="#004da3"/>
    <path id="パス_63" data-name="パス 63" d="M379.932,131.286c-.352,0-.646-.176-.646-.528,0-.469.47-.469.646-.469h7.981v-3.462a.542.542,0,0,0-.587-.528h-7.863c-.352,0-.645-.176-.645-.528s.235-.47.645-.47h9.389a1.4,1.4,0,0,1,1.467,1.408v8.626a1.4,1.4,0,0,1-1.467,1.408h-9.506c-.352,0-.646-.117-.646-.469s.293-.528.646-.528h8.1a.542.542,0,0,0,.587-.528v-3.873h-8.1Z" transform="translate(-259.919 -94.441)" fill="#004da3"/>
    <path id="パス_64" data-name="パス 64" d="M407.167,129.115a24.7,24.7,0,0,0-1-2.523,6.584,6.584,0,0,1-.469-1.056.539.539,0,0,1,.587-.528c.352,0,1,.822,1.467,1.35.646.763,1.7,2.23,1.7,2.875a1.144,1.144,0,0,1-1.115,1.115C407.578,130.348,407.4,130,407.167,129.115Zm11.443-4.166a16.582,16.582,0,0,1-2.875,7.922,12.963,12.963,0,0,1-7.1,4.342.526.526,0,0,1-.528-.528.521.521,0,0,1,.411-.528c1.819-.7,6.983-2.582,7.511-10.68.059-1,.117-1.584,1.291-1.584C417.554,123.834,418.61,124.01,418.61,124.949Zm-7.218,2.465a11.079,11.079,0,0,0-.939-2.23c-.176-.352-.176-.411-.176-.528a.579.579,0,0,1,.587-.528c.293,0,1.056.88,1.409,1.291a5.658,5.658,0,0,1,1.408,2.347,1.124,1.124,0,0,1-1.056,1.056C411.8,128.881,411.744,128.646,411.392,127.414Z" transform="translate(-271.075 -93.855)" fill="#004da3"/>
    <path id="パス_65" data-name="パス 65" d="M447.41,117.551a1.741,1.741,0,0,1,1.761,1.819,16.942,16.942,0,0,1-4.577,8.861,17.408,17.408,0,0,1-9.037,4.225.606.606,0,0,1-.646-.646c0-.528.47-.645.763-.7a13.15,13.15,0,0,0,8.685-6.748,16.386,16.386,0,0,0,1.584-4.871c0-.469-.235-.7-.645-.7H435.263c-.763,0-.763-.587-.763-.645,0-.587.528-.645.763-.645H447.41Zm5.105-1a2.054,2.054,0,1,1-2.054-2.054A2.079,2.079,0,0,1,452.515,116.554Zm-3.051,0a.989.989,0,0,0,1,1,.955.955,0,0,0,1-1,1,1,0,1,0-2,0Z" transform="translate(-282.974 -89.978)" fill="#004da3"/>
  </g>
</svg>
