<svg xmlns="http://www.w3.org/2000/svg" width="88.387" height="19.09" viewBox="0 0 88.387 19.09">
  <path id="パス_351" data-name="パス 351" d="M36.623,18.549V0H39.99V18.549H36.623M63.409,0H59.832l-3.1,5.137L53.611,0H50.035l5.118,8.466V18.549h3.386V8.066L63.409,0M88.788,18.549V0H85.42V18.549h3.367M70.486,0H64.17V3.12h6.316V0m9.893,7.667L84.184,0H80.626l-3.12,6.259V0H74.139V18.549h3.367V13.393l.894-1.807,2.778,6.963h3.558L80.379,7.667M34.492,18.549V0H31.124V18.549h3.367M8.657,3.006V0H.4V18.549H3.767V9.741h4.28V6.735H3.767V3.006H8.657M20.414,13.7V0H15.277V3.006h1.769V14.135c0,1.6-3.2,1.541-3.2.038V0H10.388V14.535c0,5.422,10.045,5.745,10.045-.1,0-.266,0-.514-.019-.742M28.994,0H23.1V3.006h2.53V13.812c0,2.7-3.272,2.892-4.28,1.427-.019-.019-.038-.038-.038-.057V18.3a5.011,5.011,0,0,0,7.7-4.2c-.019-.285-.019-14.1-.019-14.1M72.522,9.189V9.151a5.1,5.1,0,1,0-10.2,0v.038h0v4.68a5.1,5.1,0,1,0,10.2,0h0V9.189h0M69,9.36v4.28h0a1.579,1.579,0,1,1-3.158,0V9.36h0V9.341A1.579,1.579,0,1,1,69,9.36h0M52.318,18.549,47.961,9.493A4.9,4.9,0,0,0,46.23,0h-4.3V18.549H45.3V11.224l3.481,7.324h3.539M48.094,4.908a1.746,1.746,0,0,1-1.75,1.75H45.3V3.139h1.046A1.762,1.762,0,0,1,48.094,4.908Z" transform="translate(-0.4)" fill="#004da3"/>
</svg>
